<svg width="958" height="376" viewBox="0 0 958 376" fill="none" xmlns="http://www.w3.org/2000/svg">
<path d="M317.223 303V159H349.223L429.823 255V159H461.223V303H429.223L348.223 206.6V303H317.223ZM512.83 303C507.496 303 502.563 301.667 498.03 299C493.496 296.333 489.896 292.733 487.23 288.2C484.563 283.667 483.23 278.733 483.23 273.4V188.6C483.23 183.133 484.563 178.2 487.23 173.8C489.896 169.267 493.496 165.667 498.03 163C502.563 160.333 507.496 159 512.83 159H597.63C602.963 159 607.83 160.333 612.23 163C616.763 165.667 620.363 169.267 623.03 173.8C625.83 178.2 627.23 183.133 627.23 188.6V273.4C627.23 278.733 625.83 283.667 623.03 288.2C620.363 292.733 616.763 296.333 612.23 299C607.83 301.667 602.963 303 597.63 303H512.83ZM514.23 271.8H595.83V190.2H514.23V271.8ZM649.655 303V159H763.855C769.321 159 774.255 160.333 778.655 163C783.188 165.667 786.788 169.267 789.455 173.8C792.255 178.2 793.655 183.133 793.655 188.6V273.4C793.655 278.733 792.255 283.667 789.455 288.2C786.788 292.733 783.188 296.333 778.655 299C774.255 301.667 769.321 303 763.855 303H649.655ZM680.455 271.8H762.255V190.2H680.455V271.8ZM816.452 303V159H949.452V190.2H847.852V215.4H929.652V246.6H847.852V271.8H949.452V303H816.452Z" fill="#FC7018"/>
<rect x="277" y="145" width="16" height="100" fill="#FFC29D"/>
<rect x="285" y="145" width="8" height="100" fill="#FC7018"/>
<rect x="80" y="145" width="16" height="100" fill="#FFC29D"/>
<rect x="80" y="145" width="8" height="100" fill="#FC7018"/>
<rect x="138" y="103" width="16" height="100" transform="rotate(-90 138 103)" fill="#FFC29D"/>
<rect x="138" y="95" width="8" height="100" transform="rotate(-90 138 95)" fill="#FC7018"/>
<rect x="138" y="303" width="16" height="100" transform="rotate(-90 138 303)" fill="#FFC29D"/>
<rect x="138" y="303" width="8" height="100" transform="rotate(-90 138 303)" fill="#FC7018"/>
<path d="M138 71L165.713 104H110.287L138 71Z" fill="#FAFAF7"/>
<path d="M138 319L110.287 286H165.713L138 319Z" fill="#FAFAF7"/>
<path d="M238 317L210.287 284H265.713L238 317Z" fill="#FAFAF7"/>
<path d="M238 71L265.713 104H210.287L238 71Z" fill="#FAFAF7"/>
<path d="M80 245L96.5 231.144V258.856L80 245Z" fill="#FAFAF7"/>
<path d="M80 145L96.5 131.144V158.856L80 145Z" fill="#FAFAF7"/>
<path d="M293 145L276.5 158.856V131.144L293 145Z" fill="#FAFAF7"/>
<path d="M293 245L276.5 258.856V231.144L293 245Z" fill="#FAFAF7"/>
<path d="M80.0715 303V287.1L157.171 195L80.0715 102.9V87H128.371L188.371 158.1L247.771 87H296.071V102.9L218.671 195L296.071 286.8V303H247.771L187.771 232.2L128.371 303H80.0715Z" fill="#FFC29D"/>
<path d="M83.6691 299V290.88L164.289 194.6L83.6691 98.32V90.2H122.529L187.489 167.05L252.159 90.2H291.019V98.32L210.109 194.6L291.019 290.59V299H252.159L187.199 222.15L122.529 299H83.6691Z" fill="#FC7018"/>
</svg>
