<svg width="376" height="376" viewBox="0 0 376 376" fill="none" xmlns="http://www.w3.org/2000/svg">
<rect x="277" y="145" width="16" height="100" fill="#FFC29D"/>
<rect x="285" y="145" width="8" height="100" fill="#FC7018"/>
<rect x="80" y="145" width="16" height="100" fill="#FFC29D"/>
<rect x="80" y="145" width="8" height="100" fill="#FC7018"/>
<rect x="138" y="103" width="16" height="100" transform="rotate(-90 138 103)" fill="#FFC29D"/>
<rect x="138" y="95" width="8" height="100" transform="rotate(-90 138 95)" fill="#FC7018"/>
<rect x="138" y="303" width="16" height="100" transform="rotate(-90 138 303)" fill="#FFC29D"/>
<rect x="138" y="303" width="8" height="100" transform="rotate(-90 138 303)" fill="#FC7018"/>
<path d="M138 71L165.713 104H110.287L138 71Z" fill="#FAFAF7"/>
<path d="M138 319L110.287 286H165.713L138 319Z" fill="#FAFAF7"/>
<path d="M238 317L210.287 284H265.713L238 317Z" fill="#FAFAF7"/>
<path d="M238 71L265.713 104H210.287L238 71Z" fill="#FAFAF7"/>
<path d="M80 245L96.5 231.144V258.856L80 245Z" fill="#FAFAF7"/>
<path d="M80 145L96.5 131.144V158.856L80 145Z" fill="#FAFAF7"/>
<path d="M293 145L276.5 158.856V131.144L293 145Z" fill="#FAFAF7"/>
<path d="M293 245L276.5 258.856V231.144L293 245Z" fill="#FAFAF7"/>
<path d="M80.0715 303V287.1L157.171 195L80.0715 102.9V87H128.371L188.371 158.1L247.771 87H296.071V102.9L218.671 195L296.071 286.8V303H247.771L187.771 232.2L128.371 303H80.0715Z" fill="#FFC29D"/>
<path d="M83.6691 299V290.88L164.289 194.6L83.6691 98.32V90.2H122.529L187.489 167.05L252.159 90.2H291.019V98.32L210.109 194.6L291.019 290.59V299H252.159L187.199 222.15L122.529 299H83.6691Z" fill="#FC7018"/>
</svg>
